<?xml version="1.0" encoding="UTF-8" standalone="no"?>
<svg width="25px" height="25px" viewBox="0 0 25 25" version="1.1" xmlns="http://www.w3.org/2000/svg" xmlns:xlink="http://www.w3.org/1999/xlink" xmlns:sketch="http://www.bohemiancoding.com/sketch/ns">
    <!-- Generator: Sketch 3.0.3 (7891) - http://www.bohemiancoding.com/sketch -->
    <title>icon-unstable</title>
    <desc>Created with Sketch.</desc>
    <defs></defs>
    <g id="Page-1" stroke="none" stroke-width="1" fill="none" fill-rule="evenodd" sketch:type="MSPage">
        <g id="Artboard-1" sketch:type="MSArtboardGroup" transform="translate(-220.000000, -20.000000)" fill="#5F5F5F">
            <g id="Standard" sketch:type="MSLayerGroup" transform="translate(20.000000, 20.000000)">
                <path d="M203.125,11.8619478 L203.125,9.13498456 C203.125,5.81141785 205.815762,3.125 209.134985,3.125 L215.865015,3.125 C219.188582,3.125 221.875,5.81576174 221.875,9.13498456 L221.875,10.4138765 L216.512439,8.85013834 C215.981263,8.69524566 215.193135,8.83140794 214.748514,9.15321762 L209.572915,12.8992345 C209.132687,13.2178646 208.337271,13.3583081 207.806117,13.2058221 L203.125,11.8619478 Z M203.125,14.9869477 L203.125,15.8650154 C203.125,19.1842383 205.811418,21.875 209.134985,21.875 L215.865015,21.875 C219.184238,21.875 221.875,19.1885822 221.875,15.8650154 L221.875,13.5388765 L216.512439,11.9751383 C215.982871,11.8207146 215.188742,11.9595874 214.748514,12.2782175 L209.572915,16.0242344 C209.128294,16.3460441 208.346168,16.4858622 207.806117,16.330822 L203.125,14.9869477 Z M207.996098,0 C203.579975,0 200,3.58189046 200,7.99609797 L200,17.003902 C200,21.420025 203.58189,25 207.996098,25 L217.003902,25 C221.420025,25 225,21.4181095 225,17.003902 L225,7.99609797 C225,3.579975 221.41811,0 217.003902,0 L207.996098,0 Z" id="icon-unstable" sketch:type="MSShapeGroup"></path>
            </g>
        </g>
    </g>
</svg>