<?xml version="1.0" encoding="UTF-8" standalone="no"?>
<svg width="40px" height="40px" viewBox="0 0 40 40" version="1.1" xmlns="http://www.w3.org/2000/svg" xmlns:xlink="http://www.w3.org/1999/xlink" xmlns:sketch="http://www.bohemiancoding.com/sketch/ns">
    <!-- Generator: Sketch 3.0.3 (7891) - http://www.bohemiancoding.com/sketch -->
    <title>icon-unstable</title>
    <desc>Created with Sketch.</desc>
    <defs></defs>
    <g id="Page-1" stroke="none" stroke-width="1" fill="none" fill-rule="evenodd" sketch:type="MSPage">
        <g id="Artboard-1" sketch:type="MSArtboardGroup" transform="translate(-220.000000, -20.000000)" fill="#4A4A4A">
            <path d="M225,38.9791164 L225,28.9992748 C225,26.7867947 226.790536,25 228.999275,25 L251.000725,25 C253.213205,25 255,26.7905363 255,28.9992748 L255,36.6622024 L245.843242,33.9920652 C245.306734,33.835618 244.520356,33.9772879 244.069664,34.3034918 L234.844622,40.9804316 C234.389808,41.3096186 233.597027,41.4471864 233.06469,41.2943609 L225,38.9791164 Z M225,43.9791164 L225,51.0007252 C225,53.2094637 226.786795,55 228.999275,55 L251.000725,55 C253.209464,55 255,53.2132053 255,51.0007252 L255,41.6622024 L245.843242,38.992065 C245.314414,38.8378573 244.524478,38.9743046 244.069664,39.3034916 L234.844622,45.9804314 C234.39393,46.3066353 233.596598,46.447063 233.06469,46.2943608 L225,43.9791164 Z M227.99846,20 C223.581032,20 220,23.5849353 220,27.9984599 L220,52.0015401 C220,56.4189675 223.584935,60 227.99846,60 L252.00154,60 C256.418968,60 260,56.4150647 260,52.0015401 L260,27.9984599 C260,23.5810325 256.415065,20 252.00154,20 L227.99846,20 Z" id="icon-unstable" sketch:type="MSShapeGroup"></path>
        </g>
    </g>
</svg>