<?xml version="1.0" encoding="UTF-8" standalone="no"?>
<svg width="25px" height="25px" viewBox="0 0 25 25" version="1.1" xmlns="http://www.w3.org/2000/svg" xmlns:xlink="http://www.w3.org/1999/xlink" xmlns:sketch="http://www.bohemiancoding.com/sketch/ns">
    <!-- Generator: Sketch 3.0.3 (7891) - http://www.bohemiancoding.com/sketch -->
    <title>icon-flat</title>
    <desc>Created with Sketch.</desc>
    <defs></defs>
    <g id="Page-1" stroke="none" stroke-width="1" fill="none" fill-rule="evenodd" sketch:type="MSPage">
        <g id="Artboard-1" sketch:type="MSArtboardGroup" transform="translate(-120.000000, -20.000000)" fill="#5F5F5F">
            <g id="Standard" sketch:type="MSLayerGroup" transform="translate(20.000000, 20.000000)">
                <path d="M103.125,11.2302407 L103.125,9.13498456 C103.125,5.81141785 105.815762,3.125 109.134985,3.125 L115.865015,3.125 C119.188582,3.125 121.875,5.81576174 121.875,9.13498456 L121.875,11.2302407 L103.125,11.2302407 Z M103.125,14.3552407 L103.125,15.8650154 C103.125,19.1842383 105.811418,21.875 109.134985,21.875 L115.865015,21.875 C119.184238,21.875 121.875,19.1885822 121.875,15.8650154 L121.875,14.3552407 L103.125,14.3552407 Z M107.996098,0 C103.579975,0 100,3.58189046 100,7.99609797 L100,17.003902 C100,21.420025 103.58189,25 107.996098,25 L117.003902,25 C121.420025,25 125,21.4181095 125,17.003902 L125,7.99609797 C125,3.579975 121.41811,0 117.003902,0 L107.996098,0 Z" id="icon-flat" sketch:type="MSShapeGroup"></path>
            </g>
        </g>
    </g>
</svg>