<?xml version="1.0" encoding="UTF-8" standalone="no"?>
<svg width="25px" height="25px" viewBox="0 0 25 25" version="1.1" xmlns="http://www.w3.org/2000/svg" xmlns:xlink="http://www.w3.org/1999/xlink" xmlns:sketch="http://www.bohemiancoding.com/sketch/ns">
    <!-- Generator: Sketch 3.0.3 (7891) - http://www.bohemiancoding.com/sketch -->
    <title>icon-stable</title>
    <desc>Created with Sketch.</desc>
    <defs></defs>
    <g id="Page-1" stroke="none" stroke-width="1" fill="none" fill-rule="evenodd" sketch:type="MSPage">
        <g id="Artboard-1" sketch:type="MSArtboardGroup" transform="translate(-170.000000, -20.000000)" fill="#5F5F5F">
            <g id="Standard" sketch:type="MSLayerGroup" transform="translate(20.000000, 20.000000)">
                <path d="M153.125,11.10733 L153.125,9.13498456 C153.125,5.81141785 155.815762,3.125 159.134985,3.125 L165.865015,3.125 C169.188582,3.125 171.875,5.81576174 171.875,9.13498456 L171.875,11.400361 L166.547042,11.7241224 C165.993496,11.7577594 165.11181,11.7198879 164.56687,11.6401946 L159.754558,10.9364305 C159.213087,10.8572444 158.323116,10.8169751 157.7745,10.8476196 L153.125,11.10733 Z M153.125,14.23233 L153.125,15.8650154 C153.125,19.1842383 155.811418,21.875 159.134985,21.875 L165.865015,21.875 C169.184238,21.875 171.875,19.1885822 171.875,15.8650154 L171.875,14.525361 L166.547042,14.8491223 C165.998363,14.8824636 165.108342,14.8443806 164.56687,14.7651945 L159.754558,14.0614304 C159.209618,13.981737 158.323696,13.9419427 157.7745,13.9726195 L153.125,14.23233 Z M157.996098,0 C153.579975,0 150,3.58189046 150,7.99609797 L150,17.003902 C150,21.420025 153.58189,25 157.996098,25 L167.003902,25 C171.420025,25 175,21.4181095 175,17.003902 L175,7.99609797 C175,3.579975 171.41811,0 167.003902,0 L157.996098,0 Z" id="icon-stable" sketch:type="MSShapeGroup"></path>
            </g>
        </g>
    </g>
</svg>