<?xml version="1.0" encoding="UTF-8" standalone="no"?>
<svg width="40px" height="40px" viewBox="0 0 40 40" version="1.1" xmlns="http://www.w3.org/2000/svg" xmlns:xlink="http://www.w3.org/1999/xlink" xmlns:sketch="http://www.bohemiancoding.com/sketch/ns">
    <!-- Generator: Sketch 3.0.3 (7891) - http://www.bohemiancoding.com/sketch -->
    <title>icon-growth</title>
    <desc>Created with Sketch.</desc>
    <defs></defs>
    <g id="Page-1" stroke="none" stroke-width="1" fill="none" fill-rule="evenodd" sketch:type="MSPage">
        <g id="Artboard-1" sketch:type="MSArtboardGroup" transform="translate(-20.000000, -20.000000)" fill="#4A4A4A">
            <g id="Standard" sketch:type="MSLayerGroup" transform="translate(20.000000, 20.000000)">
                <path d="M5,25.9194254 L5,8.9992748 C5,6.78679466 6.79053632,5 8.9992748,5 L31.0007252,5 C33.0815506,5 34.7858445,6.58378296 34.9813062,8.60971022 L5,25.9194254 Z M5.05424526,31.6616096 C5.36865709,33.5558602 7.01229969,35 8.9992748,35 L31.0007252,35 C33.2094637,35 35,33.2132053 35,31.0007252 L35,14.37242 L5.05424526,31.6616096 Z M7.99845994,0 C3.58103249,0 0,3.58493529 0,7.99845994 L0,32.0015401 C0,36.4189675 3.58493529,40 7.99845994,40 L32.0015401,40 C36.4189675,40 40,36.4150647 40,32.0015401 L40,7.99845994 C40,3.58103249 36.4150647,0 32.0015401,0 L7.99845994,0 Z" id="icon-growth" sketch:type="MSShapeGroup"></path>
            </g>
        </g>
    </g>
</svg>