<?xml version="1.0" encoding="UTF-8" standalone="no"?>
<svg width="40px" height="40px" viewBox="0 0 40 40" version="1.1" xmlns="http://www.w3.org/2000/svg" xmlns:xlink="http://www.w3.org/1999/xlink" xmlns:sketch="http://www.bohemiancoding.com/sketch/ns">
    <!-- Generator: Sketch 3.0.3 (7891) - http://www.bohemiancoding.com/sketch -->
    <title>icon-stable</title>
    <desc>Created with Sketch.</desc>
    <defs></defs>
    <g id="Page-1" stroke="none" stroke-width="1" fill="none" fill-rule="evenodd" sketch:type="MSPage">
        <g id="Artboard-1" sketch:type="MSArtboardGroup" transform="translate(-170.000000, -20.000000)" fill="#4A4A4A">
            <path d="M175,37.771728 L175,28.9992748 C175,26.7867947 176.790536,25 178.999275,25 L201.000725,25 C203.213205,25 205,26.7905363 205,28.9992748 L205,38.2405777 L195.888792,38.7942339 C195.338475,38.8276748 194.445768,38.7908486 193.903066,38.7114826 L185.011219,37.4111175 C184.467631,37.3316218 183.578284,37.2925647 183.022827,37.3235913 L175,37.771728 Z M175,42.7717279 L175,51.0007252 C175,53.2094637 176.786795,55 178.999275,55 L201.000725,55 C203.209464,55 205,53.2132053 205,51.0007252 L205,43.2405776 L195.888792,43.7942338 C195.334807,43.8278975 194.446654,43.7909781 193.903066,43.7114825 L185.011219,42.4111173 C184.468518,42.3317514 183.581937,42.2923605 183.022827,42.3235911 L175,42.7717279 Z M177.99846,20 C173.581032,20 170,23.5849353 170,27.9984599 L170,52.0015401 C170,56.4189675 173.584935,60 177.99846,60 L202.00154,60 C206.418968,60 210,56.4150647 210,52.0015401 L210,27.9984599 C210,23.5810325 206.415065,20 202.00154,20 L177.99846,20 Z" id="icon-stable" sketch:type="MSShapeGroup"></path>
        </g>
    </g>
</svg>